<svg width="109" height="25" viewBox="0 0 109 25" fill="none" xmlns="http://www.w3.org/2000/svg">
  <g>
    <path d="M98.6328 24.6125C97.3322 24.6125 96.0247 24.1068 95.0309 23.1096C93.047 21.1115 93.047 17.8562 95.0309 15.8581L103.727 7.10022V19.4821C103.727 20.8973 103.155 22.179 102.235 23.1096C101.743 23.6047 101.182 23.9769 100.582 24.2227C99.9857 24.4721 99.3267 24.6125 98.6328 24.6125Z" />
    <path d="M89.6586 15.5698C88.3581 15.5698 87.0505 15.0642 86.0568 14.0669C85.0631 13.0696 84.5645 11.7598 84.5645 10.4394C84.5645 9.76868 84.6969 9.12255 84.9341 8.52909C85.1816 7.90051 85.5582 7.31759 86.0568 6.81192C86.9773 5.88486 88.2535 5.30896 89.6586 5.30896H101.953L93.257 14.0669C92.2632 15.0677 90.9662 15.5698 89.6551 15.5698H89.6586Z" />
    <path d="M106.001 7.39928C105.317 6.711 105.317 5.5873 106.001 4.89551C106.684 4.20373 107.8 4.20724 108.487 4.89551C109.174 5.58378 109.17 6.70749 108.487 7.39928C107.804 8.09106 106.688 8.08755 106.001 7.39928Z" />
    <path d="M101.653 3.01997C100.97 2.3317 100.97 1.20799 101.653 0.516204C102.337 -0.172068 103.452 -0.172068 104.139 0.516204C104.823 1.20448 104.823 2.32818 104.139 3.01997C103.456 3.70824 102.34 3.70824 101.653 3.01997Z" />
    <path d="M0 5.38361H8.66463C11.7504 5.38361 13.6263 7.30093 13.6263 10.2191C13.6263 13.1372 11.991 14.1626 10.272 14.2714V14.433C11.9073 14.4611 14.3237 15.6199 14.3237 18.8365C14.3237 21.8635 12.256 24.2408 9.49448 24.2408H0V5.38361ZM3.54256 13.2461H7.91498C9.20159 13.2461 9.95474 12.4911 9.95474 11.248V10.4087C9.95474 9.1375 9.20508 8.4106 7.91498 8.4106H3.54256V13.2461ZM3.54256 21.2174H8.47983C9.82224 21.2174 10.6242 20.487 10.6242 19.1631V18.243C10.6242 16.9192 9.81875 16.1642 8.47983 16.1642H3.54256V21.2174Z" />
    <path d="M16.6324 17.1612C16.6324 12.705 19.0208 9.8114 23.1248 9.8114C27.4972 9.8114 29.509 13.0526 29.509 16.9153V18.0496H20.1994V18.4008C20.1994 20.4269 21.3535 21.8035 23.6059 21.8035C25.297 21.8035 26.3152 20.9923 27.1729 19.8862L29.0244 21.965C27.8703 23.5593 25.8305 24.5601 23.2294 24.5601C19.0975 24.5601 16.6289 21.67 16.6289 17.1576L16.6324 17.1612ZM20.1994 15.7038V15.9181H25.9386V15.6758C25.9386 13.7303 24.9449 12.4065 23.1771 12.4065C21.4093 12.4065 20.1994 13.7584 20.1994 15.7038Z" />
    <path d="M31.6011 17.1612C31.6011 12.705 33.9896 9.8114 38.0935 9.8114C42.4659 9.8114 44.4778 13.0526 44.4778 16.9153V18.0496H35.1681V18.4008C35.1681 20.4269 36.3222 21.8035 38.5747 21.8035C40.2658 21.8035 41.2839 20.9923 42.1417 19.8862L43.9931 21.965C42.839 23.5593 40.8027 24.5601 38.1981 24.5601C34.0663 24.5601 31.5977 21.67 31.5977 17.1576L31.6011 17.1612ZM35.1681 15.7038V15.9181H40.9073V15.6758C40.9073 13.7303 39.9136 12.4065 38.1458 12.4065C36.378 12.4065 35.1681 13.7584 35.1681 15.7038Z" />
    <path d="M59.3093 24.2408L57.8065 19.4335H51.1538L49.6788 24.2408H46.084L52.3602 5.38361H56.7605L62.9844 24.2408H59.3093ZM54.5359 8.6248H54.4034L52.015 16.3784H56.9523L54.5394 8.6248H54.5359Z" />
    <path d="M64.9727 24.2408V21.3789H67.4413V8.24555H64.9727V5.38361H73.4769V8.24555H70.9804V21.3754H73.4769V24.2373H64.9727V24.2408Z" />
  </g>
</svg>